<mxfile host="app.diagrams.net" agent="Mozilla/5.0 (Macintosh; Intel Mac OS X 10_15_7) AppleWebKit/537.36 (KHTML, like Gecko) Chrome/129.0.0.0 Safari/537.36" version="24.8.0">
  <diagram name="PÃ¡gina-1" id="Shy19o994jKM5tEOcR9w">
    <mxGraphModel dx="1891" dy="947" grid="1" gridSize="10" guides="1" tooltips="1" connect="1" arrows="1" fold="1" page="1" pageScale="1" pageWidth="1169" pageHeight="827" math="0" shadow="0">
      <root>
        <mxCell id="0" />
        <mxCell id="1" parent="0" />
        <mxCell id="HxQUoSLiWRJj39FpgmtY-1" value="Inventory" style="swimlane;fontStyle=1;align=center;verticalAlign=top;childLayout=stackLayout;horizontal=1;startSize=26;horizontalStack=0;resizeParent=1;resizeParentMax=0;resizeLast=0;collapsible=1;marginBottom=0;whiteSpace=wrap;html=1;" vertex="1" parent="1">
          <mxGeometry x="110" y="20" width="160" height="188" as="geometry" />
        </mxCell>
        <mxCell id="HxQUoSLiWRJj39FpgmtY-3" value="" style="line;strokeWidth=1;fillColor=none;align=left;verticalAlign=middle;spacingTop=-1;spacingLeft=3;spacingRight=3;rotatable=0;labelPosition=right;points=[];portConstraint=eastwest;strokeColor=inherit;" vertex="1" parent="HxQUoSLiWRJj39FpgmtY-1">
          <mxGeometry y="26" width="160" height="8" as="geometry" />
        </mxCell>
        <mxCell id="HxQUoSLiWRJj39FpgmtY-4" value="addInstrument(string, double, InstrumentSpec)" style="text;strokeColor=none;fillColor=none;align=left;verticalAlign=top;spacingLeft=4;spacingRight=4;overflow=hidden;rotatable=0;points=[[0,0.5],[1,0.5]];portConstraint=eastwest;whiteSpace=wrap;html=1;" vertex="1" parent="HxQUoSLiWRJj39FpgmtY-1">
          <mxGeometry y="34" width="160" height="40" as="geometry" />
        </mxCell>
        <mxCell id="HxQUoSLiWRJj39FpgmtY-5" value="get(string): Instrument" style="text;strokeColor=none;fillColor=none;align=left;verticalAlign=top;spacingLeft=4;spacingRight=4;overflow=hidden;rotatable=0;points=[[0,0.5],[1,0.5]];portConstraint=eastwest;whiteSpace=wrap;html=1;" vertex="1" parent="HxQUoSLiWRJj39FpgmtY-1">
          <mxGeometry y="74" width="160" height="26" as="geometry" />
        </mxCell>
        <mxCell id="HxQUoSLiWRJj39FpgmtY-6" value="search(GuitarSpec): Guitar[*]" style="text;strokeColor=none;fillColor=none;align=left;verticalAlign=top;spacingLeft=4;spacingRight=4;overflow=hidden;rotatable=0;points=[[0,0.5],[1,0.5]];portConstraint=eastwest;whiteSpace=wrap;html=1;" vertex="1" parent="HxQUoSLiWRJj39FpgmtY-1">
          <mxGeometry y="100" width="160" height="44" as="geometry" />
        </mxCell>
        <mxCell id="RGZEdu643Hwq78Gng_7G-1" value="search(MandolinSpec): Mandolin[*]" style="text;strokeColor=none;fillColor=none;align=left;verticalAlign=top;spacingLeft=4;spacingRight=4;overflow=hidden;rotatable=0;points=[[0,0.5],[1,0.5]];portConstraint=eastwest;whiteSpace=wrap;html=1;" vertex="1" parent="HxQUoSLiWRJj39FpgmtY-1">
          <mxGeometry y="144" width="160" height="44" as="geometry" />
        </mxCell>
        <mxCell id="HxQUoSLiWRJj39FpgmtY-7" value="Guitar" style="swimlane;fontStyle=1;align=center;verticalAlign=top;childLayout=stackLayout;horizontal=1;startSize=26;horizontalStack=0;resizeParent=1;resizeParentMax=0;resizeLast=0;collapsible=1;marginBottom=0;whiteSpace=wrap;html=1;" vertex="1" parent="1">
          <mxGeometry x="20" y="495.99" width="160" height="34" as="geometry" />
        </mxCell>
        <mxCell id="HxQUoSLiWRJj39FpgmtY-9" value="" style="line;strokeWidth=1;fillColor=none;align=left;verticalAlign=middle;spacingTop=-1;spacingLeft=3;spacingRight=3;rotatable=0;labelPosition=right;points=[];portConstraint=eastwest;strokeColor=inherit;" vertex="1" parent="HxQUoSLiWRJj39FpgmtY-7">
          <mxGeometry y="26" width="160" height="8" as="geometry" />
        </mxCell>
        <mxCell id="HxQUoSLiWRJj39FpgmtY-17" value="GuitarSpec" style="swimlane;fontStyle=1;align=center;verticalAlign=top;childLayout=stackLayout;horizontal=1;startSize=26;horizontalStack=0;resizeParent=1;resizeParentMax=0;resizeLast=0;collapsible=1;marginBottom=0;whiteSpace=wrap;html=1;" vertex="1" parent="1">
          <mxGeometry x="420" y="540" width="160" height="128" as="geometry" />
        </mxCell>
        <mxCell id="HxQUoSLiWRJj39FpgmtY-19" value="numStrings: int" style="text;strokeColor=none;fillColor=none;align=left;verticalAlign=top;spacingLeft=4;spacingRight=4;overflow=hidden;rotatable=0;points=[[0,0.5],[1,0.5]];portConstraint=eastwest;whiteSpace=wrap;html=1;" vertex="1" parent="HxQUoSLiWRJj39FpgmtY-17">
          <mxGeometry y="26" width="160" height="26" as="geometry" />
        </mxCell>
        <mxCell id="HxQUoSLiWRJj39FpgmtY-21" value="" style="line;strokeWidth=1;fillColor=none;align=left;verticalAlign=middle;spacingTop=-1;spacingLeft=3;spacingRight=3;rotatable=0;labelPosition=right;points=[];portConstraint=eastwest;strokeColor=inherit;" vertex="1" parent="HxQUoSLiWRJj39FpgmtY-17">
          <mxGeometry y="52" width="160" height="8" as="geometry" />
        </mxCell>
        <mxCell id="HxQUoSLiWRJj39FpgmtY-39" value="getNumStrings(): int" style="text;strokeColor=none;fillColor=none;align=left;verticalAlign=top;spacingLeft=4;spacingRight=4;overflow=hidden;rotatable=0;points=[[0,0.5],[1,0.5]];portConstraint=eastwest;whiteSpace=wrap;html=1;" vertex="1" parent="HxQUoSLiWRJj39FpgmtY-17">
          <mxGeometry y="60" width="160" height="26" as="geometry" />
        </mxCell>
        <mxCell id="HxQUoSLiWRJj39FpgmtY-91" value="matches(GuitarSpec): boolean" style="text;strokeColor=none;fillColor=none;align=left;verticalAlign=top;spacingLeft=4;spacingRight=4;overflow=hidden;rotatable=0;points=[[0,0.5],[1,0.5]];portConstraint=eastwest;whiteSpace=wrap;html=1;" vertex="1" parent="HxQUoSLiWRJj39FpgmtY-17">
          <mxGeometry y="86" width="160" height="42" as="geometry" />
        </mxCell>
        <mxCell id="HxQUoSLiWRJj39FpgmtY-49" value="Builder" style="swimlane;fontStyle=1;align=center;verticalAlign=top;childLayout=stackLayout;horizontal=1;startSize=26;horizontalStack=0;resizeParent=1;resizeParentMax=0;resizeLast=0;collapsible=1;marginBottom=0;whiteSpace=wrap;html=1;" vertex="1" parent="1">
          <mxGeometry x="800" y="263.5" width="160" height="60" as="geometry" />
        </mxCell>
        <mxCell id="HxQUoSLiWRJj39FpgmtY-51" value="" style="line;strokeWidth=1;fillColor=none;align=left;verticalAlign=middle;spacingTop=-1;spacingLeft=3;spacingRight=3;rotatable=0;labelPosition=right;points=[];portConstraint=eastwest;strokeColor=inherit;" vertex="1" parent="HxQUoSLiWRJj39FpgmtY-49">
          <mxGeometry y="26" width="160" height="8" as="geometry" />
        </mxCell>
        <mxCell id="HxQUoSLiWRJj39FpgmtY-52" value="toString(): string" style="text;strokeColor=none;fillColor=none;align=left;verticalAlign=top;spacingLeft=4;spacingRight=4;overflow=hidden;rotatable=0;points=[[0,0.5],[1,0.5]];portConstraint=eastwest;whiteSpace=wrap;html=1;" vertex="1" parent="HxQUoSLiWRJj39FpgmtY-49">
          <mxGeometry y="34" width="160" height="26" as="geometry" />
        </mxCell>
        <mxCell id="HxQUoSLiWRJj39FpgmtY-53" value="Type" style="swimlane;fontStyle=1;align=center;verticalAlign=top;childLayout=stackLayout;horizontal=1;startSize=26;horizontalStack=0;resizeParent=1;resizeParentMax=0;resizeLast=0;collapsible=1;marginBottom=0;whiteSpace=wrap;html=1;" vertex="1" parent="1">
          <mxGeometry x="800" y="343.5" width="160" height="60" as="geometry" />
        </mxCell>
        <mxCell id="HxQUoSLiWRJj39FpgmtY-54" value="" style="line;strokeWidth=1;fillColor=none;align=left;verticalAlign=middle;spacingTop=-1;spacingLeft=3;spacingRight=3;rotatable=0;labelPosition=right;points=[];portConstraint=eastwest;strokeColor=inherit;" vertex="1" parent="HxQUoSLiWRJj39FpgmtY-53">
          <mxGeometry y="26" width="160" height="8" as="geometry" />
        </mxCell>
        <mxCell id="HxQUoSLiWRJj39FpgmtY-55" value="toString(): string" style="text;strokeColor=none;fillColor=none;align=left;verticalAlign=top;spacingLeft=4;spacingRight=4;overflow=hidden;rotatable=0;points=[[0,0.5],[1,0.5]];portConstraint=eastwest;whiteSpace=wrap;html=1;" vertex="1" parent="HxQUoSLiWRJj39FpgmtY-53">
          <mxGeometry y="34" width="160" height="26" as="geometry" />
        </mxCell>
        <mxCell id="HxQUoSLiWRJj39FpgmtY-56" value="Wood" style="swimlane;fontStyle=1;align=center;verticalAlign=top;childLayout=stackLayout;horizontal=1;startSize=26;horizontalStack=0;resizeParent=1;resizeParentMax=0;resizeLast=0;collapsible=1;marginBottom=0;whiteSpace=wrap;html=1;" vertex="1" parent="1">
          <mxGeometry x="800" y="430.5" width="160" height="60" as="geometry" />
        </mxCell>
        <mxCell id="HxQUoSLiWRJj39FpgmtY-57" value="" style="line;strokeWidth=1;fillColor=none;align=left;verticalAlign=middle;spacingTop=-1;spacingLeft=3;spacingRight=3;rotatable=0;labelPosition=right;points=[];portConstraint=eastwest;strokeColor=inherit;" vertex="1" parent="HxQUoSLiWRJj39FpgmtY-56">
          <mxGeometry y="26" width="160" height="8" as="geometry" />
        </mxCell>
        <mxCell id="HxQUoSLiWRJj39FpgmtY-58" value="toString(): string" style="text;strokeColor=none;fillColor=none;align=left;verticalAlign=top;spacingLeft=4;spacingRight=4;overflow=hidden;rotatable=0;points=[[0,0.5],[1,0.5]];portConstraint=eastwest;whiteSpace=wrap;html=1;" vertex="1" parent="HxQUoSLiWRJj39FpgmtY-56">
          <mxGeometry y="34" width="160" height="26" as="geometry" />
        </mxCell>
        <mxCell id="HxQUoSLiWRJj39FpgmtY-71" value="&lt;i&gt;Instrument&lt;/i&gt;" style="swimlane;fontStyle=1;align=center;verticalAlign=top;childLayout=stackLayout;horizontal=1;startSize=26;horizontalStack=0;resizeParent=1;resizeParentMax=0;resizeLast=0;collapsible=1;marginBottom=0;whiteSpace=wrap;html=1;" vertex="1" parent="1">
          <mxGeometry x="110" y="260" width="160" height="190" as="geometry" />
        </mxCell>
        <mxCell id="HxQUoSLiWRJj39FpgmtY-72" value="serialNumber: string" style="text;strokeColor=none;fillColor=none;align=left;verticalAlign=top;spacingLeft=4;spacingRight=4;overflow=hidden;rotatable=0;points=[[0,0.5],[1,0.5]];portConstraint=eastwest;whiteSpace=wrap;html=1;" vertex="1" parent="HxQUoSLiWRJj39FpgmtY-71">
          <mxGeometry y="26" width="160" height="26" as="geometry" />
        </mxCell>
        <mxCell id="HxQUoSLiWRJj39FpgmtY-84" value="price: double" style="text;strokeColor=none;fillColor=none;align=left;verticalAlign=top;spacingLeft=4;spacingRight=4;overflow=hidden;rotatable=0;points=[[0,0.5],[1,0.5]];portConstraint=eastwest;whiteSpace=wrap;html=1;" vertex="1" parent="HxQUoSLiWRJj39FpgmtY-71">
          <mxGeometry y="52" width="160" height="26" as="geometry" />
        </mxCell>
        <mxCell id="HxQUoSLiWRJj39FpgmtY-73" value="" style="line;strokeWidth=1;fillColor=none;align=left;verticalAlign=middle;spacingTop=-1;spacingLeft=3;spacingRight=3;rotatable=0;labelPosition=right;points=[];portConstraint=eastwest;strokeColor=inherit;" vertex="1" parent="HxQUoSLiWRJj39FpgmtY-71">
          <mxGeometry y="78" width="160" height="8" as="geometry" />
        </mxCell>
        <mxCell id="HxQUoSLiWRJj39FpgmtY-74" value="getSerialNumber(): string" style="text;strokeColor=none;fillColor=none;align=left;verticalAlign=top;spacingLeft=4;spacingRight=4;overflow=hidden;rotatable=0;points=[[0,0.5],[1,0.5]];portConstraint=eastwest;whiteSpace=wrap;html=1;" vertex="1" parent="HxQUoSLiWRJj39FpgmtY-71">
          <mxGeometry y="86" width="160" height="26" as="geometry" />
        </mxCell>
        <mxCell id="HxQUoSLiWRJj39FpgmtY-85" value="getPrice(): double" style="text;strokeColor=none;fillColor=none;align=left;verticalAlign=top;spacingLeft=4;spacingRight=4;overflow=hidden;rotatable=0;points=[[0,0.5],[1,0.5]];portConstraint=eastwest;whiteSpace=wrap;html=1;" vertex="1" parent="HxQUoSLiWRJj39FpgmtY-71">
          <mxGeometry y="112" width="160" height="26" as="geometry" />
        </mxCell>
        <mxCell id="HxQUoSLiWRJj39FpgmtY-86" value="setPrice(float)" style="text;strokeColor=none;fillColor=none;align=left;verticalAlign=top;spacingLeft=4;spacingRight=4;overflow=hidden;rotatable=0;points=[[0,0.5],[1,0.5]];portConstraint=eastwest;whiteSpace=wrap;html=1;" vertex="1" parent="HxQUoSLiWRJj39FpgmtY-71">
          <mxGeometry y="138" width="160" height="26" as="geometry" />
        </mxCell>
        <mxCell id="RGZEdu643Hwq78Gng_7G-2" value="getSpec(): InstrumentSpec" style="text;strokeColor=none;fillColor=none;align=left;verticalAlign=top;spacingLeft=4;spacingRight=4;overflow=hidden;rotatable=0;points=[[0,0.5],[1,0.5]];portConstraint=eastwest;whiteSpace=wrap;html=1;" vertex="1" parent="HxQUoSLiWRJj39FpgmtY-71">
          <mxGeometry y="164" width="160" height="26" as="geometry" />
        </mxCell>
        <mxCell id="HxQUoSLiWRJj39FpgmtY-75" value="Mandolin" style="swimlane;fontStyle=1;align=center;verticalAlign=top;childLayout=stackLayout;horizontal=1;startSize=26;horizontalStack=0;resizeParent=1;resizeParentMax=0;resizeLast=0;collapsible=1;marginBottom=0;whiteSpace=wrap;html=1;" vertex="1" parent="1">
          <mxGeometry x="210" y="495.99" width="160" height="34" as="geometry" />
        </mxCell>
        <mxCell id="HxQUoSLiWRJj39FpgmtY-79" value="" style="line;strokeWidth=1;fillColor=none;align=left;verticalAlign=middle;spacingTop=-1;spacingLeft=3;spacingRight=3;rotatable=0;labelPosition=right;points=[];portConstraint=eastwest;strokeColor=inherit;" vertex="1" parent="HxQUoSLiWRJj39FpgmtY-75">
          <mxGeometry y="26" width="160" height="8" as="geometry" />
        </mxCell>
        <mxCell id="HxQUoSLiWRJj39FpgmtY-89" value="" style="endArrow=block;html=1;rounded=0;exitX=0.5;exitY=0;exitDx=0;exitDy=0;endFill=0;endSize=8;entryX=0.174;entryY=1.08;entryDx=0;entryDy=0;entryPerimeter=0;" edge="1" parent="1" source="HxQUoSLiWRJj39FpgmtY-7" target="RGZEdu643Hwq78Gng_7G-2">
          <mxGeometry width="50" height="50" relative="1" as="geometry">
            <mxPoint x="-61" y="570" as="sourcePoint" />
            <mxPoint x="-11" y="520" as="targetPoint" />
          </mxGeometry>
        </mxCell>
        <mxCell id="HxQUoSLiWRJj39FpgmtY-90" value="" style="endArrow=block;html=1;rounded=0;exitX=0.25;exitY=0;exitDx=0;exitDy=0;entryX=0.777;entryY=0.936;entryDx=0;entryDy=0;entryPerimeter=0;endFill=0;endSize=8;" edge="1" parent="1" source="HxQUoSLiWRJj39FpgmtY-75" target="RGZEdu643Hwq78Gng_7G-2">
          <mxGeometry width="50" height="50" relative="1" as="geometry">
            <mxPoint x="-121" y="600" as="sourcePoint" />
            <mxPoint x="-228" y="504" as="targetPoint" />
          </mxGeometry>
        </mxCell>
        <mxCell id="HxQUoSLiWRJj39FpgmtY-92" value="MandolinSpec" style="swimlane;fontStyle=1;align=center;verticalAlign=top;childLayout=stackLayout;horizontal=1;startSize=26;horizontalStack=0;resizeParent=1;resizeParentMax=0;resizeLast=0;collapsible=1;marginBottom=0;whiteSpace=wrap;html=1;" vertex="1" parent="1">
          <mxGeometry x="600" y="540" width="160" height="102" as="geometry" />
        </mxCell>
        <mxCell id="HxQUoSLiWRJj39FpgmtY-99" value="" style="line;strokeWidth=1;fillColor=none;align=left;verticalAlign=middle;spacingTop=-1;spacingLeft=3;spacingRight=3;rotatable=0;labelPosition=right;points=[];portConstraint=eastwest;strokeColor=inherit;" vertex="1" parent="HxQUoSLiWRJj39FpgmtY-92">
          <mxGeometry y="26" width="160" height="8" as="geometry" />
        </mxCell>
        <mxCell id="HxQUoSLiWRJj39FpgmtY-121" value="getStyle(): Style" style="text;strokeColor=none;fillColor=none;align=left;verticalAlign=top;spacingLeft=4;spacingRight=4;overflow=hidden;rotatable=0;points=[[0,0.5],[1,0.5]];portConstraint=eastwest;whiteSpace=wrap;html=1;" vertex="1" parent="HxQUoSLiWRJj39FpgmtY-92">
          <mxGeometry y="34" width="160" height="26" as="geometry" />
        </mxCell>
        <mxCell id="HxQUoSLiWRJj39FpgmtY-106" value="matches(MandolinSpec): boolean" style="text;strokeColor=none;fillColor=none;align=left;verticalAlign=top;spacingLeft=4;spacingRight=4;overflow=hidden;rotatable=0;points=[[0,0.5],[1,0.5]];portConstraint=eastwest;whiteSpace=wrap;html=1;" vertex="1" parent="HxQUoSLiWRJj39FpgmtY-92">
          <mxGeometry y="60" width="160" height="42" as="geometry" />
        </mxCell>
        <mxCell id="HxQUoSLiWRJj39FpgmtY-111" value="" style="endArrow=open;html=1;rounded=0;exitX=0.482;exitY=1.064;exitDx=0;exitDy=0;exitPerimeter=0;entryX=0.5;entryY=0;entryDx=0;entryDy=0;endFill=0;" edge="1" parent="1" source="RGZEdu643Hwq78Gng_7G-1" target="HxQUoSLiWRJj39FpgmtY-71">
          <mxGeometry width="50" height="50" relative="1" as="geometry">
            <mxPoint x="420" y="470" as="sourcePoint" />
            <mxPoint x="470" y="420" as="targetPoint" />
          </mxGeometry>
        </mxCell>
        <mxCell id="HxQUoSLiWRJj39FpgmtY-112" value="inventory[*]" style="edgeLabel;html=1;align=center;verticalAlign=middle;resizable=0;points=[];" vertex="1" connectable="0" parent="HxQUoSLiWRJj39FpgmtY-111">
          <mxGeometry x="0.0859" y="-3" relative="1" as="geometry">
            <mxPoint x="4" y="-7" as="offset" />
          </mxGeometry>
        </mxCell>
        <mxCell id="HxQUoSLiWRJj39FpgmtY-118" value="Style" style="swimlane;fontStyle=1;align=center;verticalAlign=top;childLayout=stackLayout;horizontal=1;startSize=26;horizontalStack=0;resizeParent=1;resizeParentMax=0;resizeLast=0;collapsible=1;marginBottom=0;whiteSpace=wrap;html=1;" vertex="1" parent="1">
          <mxGeometry x="600" y="700" width="160" height="60" as="geometry" />
        </mxCell>
        <mxCell id="HxQUoSLiWRJj39FpgmtY-119" value="" style="line;strokeWidth=1;fillColor=none;align=left;verticalAlign=middle;spacingTop=-1;spacingLeft=3;spacingRight=3;rotatable=0;labelPosition=right;points=[];portConstraint=eastwest;strokeColor=inherit;" vertex="1" parent="HxQUoSLiWRJj39FpgmtY-118">
          <mxGeometry y="26" width="160" height="8" as="geometry" />
        </mxCell>
        <mxCell id="HxQUoSLiWRJj39FpgmtY-120" value="toString(): string" style="text;strokeColor=none;fillColor=none;align=left;verticalAlign=top;spacingLeft=4;spacingRight=4;overflow=hidden;rotatable=0;points=[[0,0.5],[1,0.5]];portConstraint=eastwest;whiteSpace=wrap;html=1;" vertex="1" parent="HxQUoSLiWRJj39FpgmtY-118">
          <mxGeometry y="34" width="160" height="26" as="geometry" />
        </mxCell>
        <mxCell id="RGZEdu643Hwq78Gng_7G-3" value="&lt;i&gt;InstrumentSpec&lt;/i&gt;" style="swimlane;fontStyle=1;align=center;verticalAlign=top;childLayout=stackLayout;horizontal=1;startSize=26;horizontalStack=0;resizeParent=1;resizeParentMax=0;resizeLast=0;collapsible=1;marginBottom=0;whiteSpace=wrap;html=1;" vertex="1" parent="1">
          <mxGeometry x="510" y="260" width="160" height="234" as="geometry" />
        </mxCell>
        <mxCell id="RGZEdu643Hwq78Gng_7G-4" value="model: string" style="text;strokeColor=none;fillColor=none;align=left;verticalAlign=top;spacingLeft=4;spacingRight=4;overflow=hidden;rotatable=0;points=[[0,0.5],[1,0.5]];portConstraint=eastwest;whiteSpace=wrap;html=1;" vertex="1" parent="RGZEdu643Hwq78Gng_7G-3">
          <mxGeometry y="26" width="160" height="26" as="geometry" />
        </mxCell>
        <mxCell id="RGZEdu643Hwq78Gng_7G-6" value="" style="line;strokeWidth=1;fillColor=none;align=left;verticalAlign=middle;spacingTop=-1;spacingLeft=3;spacingRight=3;rotatable=0;labelPosition=right;points=[];portConstraint=eastwest;strokeColor=inherit;" vertex="1" parent="RGZEdu643Hwq78Gng_7G-3">
          <mxGeometry y="52" width="160" height="8" as="geometry" />
        </mxCell>
        <mxCell id="RGZEdu643Hwq78Gng_7G-7" value="getModel(): string" style="text;strokeColor=none;fillColor=none;align=left;verticalAlign=top;spacingLeft=4;spacingRight=4;overflow=hidden;rotatable=0;points=[[0,0.5],[1,0.5]];portConstraint=eastwest;whiteSpace=wrap;html=1;" vertex="1" parent="RGZEdu643Hwq78Gng_7G-3">
          <mxGeometry y="60" width="160" height="26" as="geometry" />
        </mxCell>
        <mxCell id="RGZEdu643Hwq78Gng_7G-9" value="getBuilder(): Builder" style="text;strokeColor=none;fillColor=none;align=left;verticalAlign=top;spacingLeft=4;spacingRight=4;overflow=hidden;rotatable=0;points=[[0,0.5],[1,0.5]];portConstraint=eastwest;whiteSpace=wrap;html=1;" vertex="1" parent="RGZEdu643Hwq78Gng_7G-3">
          <mxGeometry y="86" width="160" height="28" as="geometry" />
        </mxCell>
        <mxCell id="RGZEdu643Hwq78Gng_7G-10" value="getType(): Type" style="text;strokeColor=none;fillColor=none;align=left;verticalAlign=top;spacingLeft=4;spacingRight=4;overflow=hidden;rotatable=0;points=[[0,0.5],[1,0.5]];portConstraint=eastwest;whiteSpace=wrap;html=1;" vertex="1" parent="RGZEdu643Hwq78Gng_7G-3">
          <mxGeometry y="114" width="160" height="26" as="geometry" />
        </mxCell>
        <mxCell id="RGZEdu643Hwq78Gng_7G-11" value="getTopWood(): Wood" style="text;strokeColor=none;fillColor=none;align=left;verticalAlign=top;spacingLeft=4;spacingRight=4;overflow=hidden;rotatable=0;points=[[0,0.5],[1,0.5]];portConstraint=eastwest;whiteSpace=wrap;html=1;" vertex="1" parent="RGZEdu643Hwq78Gng_7G-3">
          <mxGeometry y="140" width="160" height="26" as="geometry" />
        </mxCell>
        <mxCell id="RGZEdu643Hwq78Gng_7G-12" value="getBackWood(): Wood" style="text;strokeColor=none;fillColor=none;align=left;verticalAlign=top;spacingLeft=4;spacingRight=4;overflow=hidden;rotatable=0;points=[[0,0.5],[1,0.5]];portConstraint=eastwest;whiteSpace=wrap;html=1;" vertex="1" parent="RGZEdu643Hwq78Gng_7G-3">
          <mxGeometry y="166" width="160" height="26" as="geometry" />
        </mxCell>
        <mxCell id="RGZEdu643Hwq78Gng_7G-13" value="matches(InstrumentSpec): boolean" style="text;strokeColor=none;fillColor=none;align=left;verticalAlign=top;spacingLeft=4;spacingRight=4;overflow=hidden;rotatable=0;points=[[0,0.5],[1,0.5]];portConstraint=eastwest;whiteSpace=wrap;html=1;" vertex="1" parent="RGZEdu643Hwq78Gng_7G-3">
          <mxGeometry y="192" width="160" height="42" as="geometry" />
        </mxCell>
        <mxCell id="RGZEdu643Hwq78Gng_7G-14" value="" style="endArrow=none;html=1;rounded=0;exitX=0.989;exitY=0.068;exitDx=0;exitDy=0;exitPerimeter=0;entryX=0.018;entryY=0.057;entryDx=0;entryDy=0;entryPerimeter=0;edgeStyle=orthogonalEdgeStyle;startArrow=diamond;startFill=0;endFill=0;" edge="1" parent="1" source="HxQUoSLiWRJj39FpgmtY-71" target="RGZEdu643Hwq78Gng_7G-3">
          <mxGeometry width="50" height="50" relative="1" as="geometry">
            <mxPoint x="570" y="410" as="sourcePoint" />
            <mxPoint x="620" y="360" as="targetPoint" />
          </mxGeometry>
        </mxCell>
        <mxCell id="RGZEdu643Hwq78Gng_7G-15" value="spec[1]" style="edgeLabel;html=1;align=center;verticalAlign=middle;resizable=0;points=[];" vertex="1" connectable="0" parent="RGZEdu643Hwq78Gng_7G-14">
          <mxGeometry x="0.8053" y="2" relative="1" as="geometry">
            <mxPoint as="offset" />
          </mxGeometry>
        </mxCell>
        <mxCell id="RGZEdu643Hwq78Gng_7G-16" value="" style="endArrow=open;html=1;rounded=0;exitX=1;exitY=0.5;exitDx=0;exitDy=0;entryX=0;entryY=0.25;entryDx=0;entryDy=0;edgeStyle=orthogonalEdgeStyle;endFill=0;" edge="1" parent="1" source="RGZEdu643Hwq78Gng_7G-9" target="HxQUoSLiWRJj39FpgmtY-49">
          <mxGeometry width="50" height="50" relative="1" as="geometry">
            <mxPoint x="690" y="373.5" as="sourcePoint" />
            <mxPoint x="740" y="323.5" as="targetPoint" />
            <Array as="points">
              <mxPoint x="690" y="360" />
              <mxPoint x="690" y="279" />
            </Array>
          </mxGeometry>
        </mxCell>
        <mxCell id="RGZEdu643Hwq78Gng_7G-19" value="builder[1]" style="edgeLabel;html=1;align=center;verticalAlign=middle;resizable=0;points=[];" vertex="1" connectable="0" parent="RGZEdu643Hwq78Gng_7G-16">
          <mxGeometry x="0.5177" relative="1" as="geometry">
            <mxPoint as="offset" />
          </mxGeometry>
        </mxCell>
        <mxCell id="RGZEdu643Hwq78Gng_7G-17" value="" style="endArrow=open;html=1;rounded=0;entryX=0;entryY=0.25;entryDx=0;entryDy=0;exitX=1;exitY=0.5;exitDx=0;exitDy=0;edgeStyle=orthogonalEdgeStyle;endFill=0;" edge="1" parent="1" source="RGZEdu643Hwq78Gng_7G-10" target="HxQUoSLiWRJj39FpgmtY-53">
          <mxGeometry width="50" height="50" relative="1" as="geometry">
            <mxPoint x="710" y="420" as="sourcePoint" />
            <mxPoint x="760" y="370" as="targetPoint" />
            <Array as="points">
              <mxPoint x="710" y="387" />
              <mxPoint x="710" y="359" />
            </Array>
          </mxGeometry>
        </mxCell>
        <mxCell id="RGZEdu643Hwq78Gng_7G-20" value="type[1]" style="edgeLabel;html=1;align=center;verticalAlign=middle;resizable=0;points=[];" vertex="1" connectable="0" parent="RGZEdu643Hwq78Gng_7G-17">
          <mxGeometry x="0.2539" y="1" relative="1" as="geometry">
            <mxPoint x="9" y="2" as="offset" />
          </mxGeometry>
        </mxCell>
        <mxCell id="RGZEdu643Hwq78Gng_7G-18" value="" style="endArrow=open;html=1;rounded=0;exitX=1;exitY=0.5;exitDx=0;exitDy=0;entryX=0;entryY=0.25;entryDx=0;entryDy=0;edgeStyle=orthogonalEdgeStyle;endFill=0;" edge="1" parent="1" source="RGZEdu643Hwq78Gng_7G-11" target="HxQUoSLiWRJj39FpgmtY-56">
          <mxGeometry width="50" height="50" relative="1" as="geometry">
            <mxPoint x="710" y="453.5" as="sourcePoint" />
            <mxPoint x="760" y="403.5" as="targetPoint" />
            <Array as="points">
              <mxPoint x="710" y="413" />
              <mxPoint x="710" y="446" />
            </Array>
          </mxGeometry>
        </mxCell>
        <mxCell id="RGZEdu643Hwq78Gng_7G-21" value="topWood[1]" style="edgeLabel;html=1;align=center;verticalAlign=middle;resizable=0;points=[];" vertex="1" connectable="0" parent="RGZEdu643Hwq78Gng_7G-18">
          <mxGeometry x="0.48" relative="1" as="geometry">
            <mxPoint x="-7" as="offset" />
          </mxGeometry>
        </mxCell>
        <mxCell id="RGZEdu643Hwq78Gng_7G-22" value="" style="endArrow=open;html=1;rounded=0;exitX=1;exitY=0.5;exitDx=0;exitDy=0;entryX=0;entryY=0.5;entryDx=0;entryDy=0;edgeStyle=orthogonalEdgeStyle;endFill=0;" edge="1" parent="1" source="RGZEdu643Hwq78Gng_7G-12" target="HxQUoSLiWRJj39FpgmtY-58">
          <mxGeometry width="50" height="50" relative="1" as="geometry">
            <mxPoint x="710" y="510" as="sourcePoint" />
            <mxPoint x="760" y="460" as="targetPoint" />
            <Array as="points">
              <mxPoint x="690" y="439" />
              <mxPoint x="690" y="478" />
            </Array>
          </mxGeometry>
        </mxCell>
        <mxCell id="RGZEdu643Hwq78Gng_7G-23" value="backWood[1]" style="edgeLabel;html=1;align=center;verticalAlign=middle;resizable=0;points=[];" vertex="1" connectable="0" parent="RGZEdu643Hwq78Gng_7G-22">
          <mxGeometry x="0.2537" y="1" relative="1" as="geometry">
            <mxPoint y="-1" as="offset" />
          </mxGeometry>
        </mxCell>
        <mxCell id="RGZEdu643Hwq78Gng_7G-24" value="" style="endArrow=block;html=1;rounded=0;exitX=0.5;exitY=0;exitDx=0;exitDy=0;entryX=0.24;entryY=1.003;entryDx=0;entryDy=0;entryPerimeter=0;endFill=0;" edge="1" parent="1" source="HxQUoSLiWRJj39FpgmtY-17" target="RGZEdu643Hwq78Gng_7G-13">
          <mxGeometry width="50" height="50" relative="1" as="geometry">
            <mxPoint x="450" y="520" as="sourcePoint" />
            <mxPoint x="500" y="470" as="targetPoint" />
          </mxGeometry>
        </mxCell>
        <mxCell id="RGZEdu643Hwq78Gng_7G-26" value="" style="endArrow=block;html=1;rounded=0;exitX=0.5;exitY=0;exitDx=0;exitDy=0;entryX=0.697;entryY=1.048;entryDx=0;entryDy=0;entryPerimeter=0;endFill=0;" edge="1" parent="1" source="HxQUoSLiWRJj39FpgmtY-92" target="RGZEdu643Hwq78Gng_7G-13">
          <mxGeometry width="50" height="50" relative="1" as="geometry">
            <mxPoint x="760" y="560" as="sourcePoint" />
            <mxPoint x="810" y="510" as="targetPoint" />
          </mxGeometry>
        </mxCell>
        <mxCell id="RGZEdu643Hwq78Gng_7G-27" value="style[1]" style="endArrow=open;html=1;rounded=0;exitX=0.513;exitY=1.019;exitDx=0;exitDy=0;exitPerimeter=0;entryX=0.5;entryY=0;entryDx=0;entryDy=0;endFill=0;" edge="1" parent="1" source="HxQUoSLiWRJj39FpgmtY-106" target="HxQUoSLiWRJj39FpgmtY-118">
          <mxGeometry width="50" height="50" relative="1" as="geometry">
            <mxPoint x="750" y="690" as="sourcePoint" />
            <mxPoint x="800" y="640" as="targetPoint" />
          </mxGeometry>
        </mxCell>
      </root>
    </mxGraphModel>
  </diagram>
</mxfile>
